<?xml version="1.0" encoding="UTF-8" standalone="no"?>
<!DOCTYPE svg PUBLIC "-//W3C//DTD SVG 1.1//EN"
 "http://www.w3.org/Graphics/SVG/1.1/DTD/svg11.dtd">
<!-- Generated by graphviz version 7.0.4 (20221203.1631)
 -->
<!-- Title: MCP3561 Pages: 1 -->
<!--zoomable 434 -->
<svg id="main" version="1.1" xmlns="http://www.w3.org/2000/svg" xmlns:xlink="http://www.w3.org/1999/xlink" xml:space="preserve" onload="init(evt)">
<style type="text/css"><![CDATA[
.edge:hover path { stroke: red; }
.edge:hover polygon { stroke: red; fill: red; }
]]></style>
<script type="text/javascript"><![CDATA[
var edges = document.getElementsByTagName('g');
if (edges && edges.length) {
  for (var i=0;i<edges.length;i++) {
    if (edges[i].id.substr(0,4)=='edge') {
      edges[i].setAttribute('class','edge');
    }
  }
}
]]></script>
        <defs>
                <circle id="rim" cx="0" cy="0" r="7"/>
                <circle id="rim2" cx="0" cy="0" r="3.5"/>
                <g id="zoomPlus">
                        <use xlink:href="#rim" fill="#404040">
                                <set attributeName="fill" to="#808080" begin="zoomplus.mouseover" end="zoomplus.mouseout"/>
                        </use>
                        <path d="M-4,0h8M0,-4v8" fill="none" stroke="white" stroke-width="1.5" pointer-events="none"/>
                </g>
                <g id="zoomMin">
                        <use xlink:href="#rim" fill="#404040">
                                <set attributeName="fill" to="#808080" begin="zoomminus.mouseover" end="zoomminus.mouseout"/>
                        </use>
                        <path d="M-4,0h8" fill="none" stroke="white" stroke-width="1.5" pointer-events="none"/>
                </g>
                <g id="dirArrow">
                        <path fill="none" stroke="white" stroke-width="1.5" d="M0,-3.0v7 M-2.5,-0.5L0,-3.0L2.5,-0.5"/>
                </g>
               <g id="resetDef">
                       <use xlink:href="#rim2" fill="#404040">
                               <set attributeName="fill" to="#808080" begin="reset.mouseover" end="reset.mouseout"/>
                       </use>
               </g>
        </defs>

<script type="text/javascript">
var viewWidth = 504;
var viewHeight = 434;
var sectionId = 'dynsection-1';
</script>
<script xlink:href="svgpan.js"/>
<svg id="graph" class="graph">
<g id="viewport">
<title>MCP3561</title>
<!-- Node1 -->
<g id="node1" class="node">
<title>Node1</title>
<g id="a_node1"><a xlink:title="inherited class">
<polygon fill="#999999" stroke="#666666" points="496,-241 437,-241 437,-222 496,-222 496,-241"/>
<text text-anchor="middle" x="466.5" y="-229" font-family="Helvetica,sans-Serif" font-size="10.00">MCP3561</text>
</a>
</g>
</g>
<!-- Node2 -->
<g id="node2" class="node">
<title>Node2</title>
<g id="a_node2"><a xlink:href="classMCP3x6x.xhtml" target="_top" xlink:title="base class">
<polygon fill="white" stroke="#666666" points="400,-241 342,-241 342,-222 400,-222 400,-241"/>
<text text-anchor="middle" x="371" y="-229" font-family="Helvetica,sans-Serif" font-size="10.00">MCP3x6x</text>
</a>
</g>
</g>
<!-- Node2&#45;&gt;Node1 -->
<g id="edge1" class="edge">
<title>Node2&#45;&gt;Node1</title>
<path fill="none" stroke="#63b8ff" d="M411.79,-231.5C420.14,-231.5 428.79,-231.5 436.64,-231.5"/>
<polygon fill="#63b8ff" stroke="#63b8ff" points="411.82,-228 401.82,-231.5 411.82,-235 411.82,-228"/>
</g>
<!-- Node3 -->
<g id="node3" class="node">
<title>Node3</title>
<g id="a_node3"><a xlink:href="structMCP3x6x_1_1Adcdata.xhtml" target="_top" xlink:title="ADC Operating Mode Selection.">
<polygon fill="white" stroke="#666666" points="269,-259 171,-259 171,-240 269,-240 269,-259"/>
<text text-anchor="middle" x="220" y="-247" font-family="Helvetica,sans-Serif" font-size="10.00">MCP3x6x::Adcdata</text>
</a>
</g>
</g>
<!-- Node3&#45;&gt;Node2 -->
<g id="edge2" class="edge">
<title>Node3&#45;&gt;Node2</title>
<path fill="none" stroke="#9a32cd" stroke-dasharray="5,2" d="M280.57,-242.3C301.72,-239.75 324.54,-236.99 341.83,-234.9"/>
<polygon fill="#9a32cd" stroke="#9a32cd" points="280.39,-238.8 270.88,-243.47 281.23,-245.75 280.39,-238.8"/>
<text text-anchor="middle" x="305.5" y="-243.5" font-family="Helvetica,sans-Serif" font-size="10.00"> adcdata</text>
</g>
<!-- Node4 -->
<g id="node4" class="node">
<title>Node4</title>
<g id="a_node4"><a xlink:href="structMCP3x6x_1_1Settings.xhtml" target="_top" xlink:title="settings">
<polygon fill="white" stroke="#666666" points="269,-222 171,-222 171,-203 269,-203 269,-222"/>
<text text-anchor="middle" x="220" y="-210" font-family="Helvetica,sans-Serif" font-size="10.00">MCP3x6x::Settings</text>
</a>
</g>
</g>
<!-- Node4&#45;&gt;Node2 -->
<g id="edge3" class="edge">
<title>Node4&#45;&gt;Node2</title>
<path fill="none" stroke="#9a32cd" stroke-dasharray="5,2" d="M280.57,-216.41C294.84,-217.7 310,-219.37 324,-221.5 329.82,-222.38 336,-223.56 341.89,-224.8"/>
<polygon fill="#9a32cd" stroke="#9a32cd" points="281.13,-212.95 270.87,-215.58 280.53,-219.92 281.13,-212.95"/>
<text text-anchor="middle" x="305.5" y="-224.5" font-family="Helvetica,sans-Serif" font-size="10.00"> settings</text>
</g>
<!-- Node5 -->
<g id="node5" class="node">
<title>Node5</title>
<g id="a_node5"><a xlink:href="unionMCP3x6x_1_1Config0.xhtml" target="_top" xlink:title="configuration register 0">
<polygon fill="white" stroke="#666666" points="95,-426 0,-426 0,-407 95,-407 95,-426"/>
<text text-anchor="middle" x="47.5" y="-414" font-family="Helvetica,sans-Serif" font-size="10.00">MCP3x6x::Config0</text>
</a>
</g>
</g>
<!-- Node5&#45;&gt;Node4 -->
<g id="edge4" class="edge">
<title>Node5&#45;&gt;Node4</title>
<path fill="none" stroke="#9a32cd" stroke-dasharray="5,2" d="M106.25,-410.44C123.72,-405.74 141.35,-397.58 153,-383.5 196.38,-331.09 129.51,-285.41 171,-231.5 173.84,-227.81 177.51,-224.83 181.55,-222.43"/>
<polygon fill="#9a32cd" stroke="#9a32cd" points="105.88,-406.93 96.93,-412.6 107.46,-413.75 105.88,-406.93"/>
<text text-anchor="middle" x="133" y="-410.5" font-family="Helvetica,sans-Serif" font-size="10.00"> config0</text>
</g>
<!-- Node6 -->
<g id="node6" class="node">
<title>Node6</title>
<g id="a_node6"><a xlink:href="unionMCP3x6x_1_1config1.xhtml" target="_top" xlink:title="configuration register 1">
<polygon fill="white" stroke="#666666" points="94,-389 1,-389 1,-370 94,-370 94,-389"/>
<text text-anchor="middle" x="47.5" y="-377" font-family="Helvetica,sans-Serif" font-size="10.00">MCP3x6x::config1</text>
</a>
</g>
</g>
<!-- Node6&#45;&gt;Node4 -->
<g id="edge5" class="edge">
<title>Node6&#45;&gt;Node4</title>
<path fill="none" stroke="#9a32cd" stroke-dasharray="5,2" d="M105.33,-371.62C123,-366.42 140.98,-357.79 153,-343.5 185.45,-304.91 139.43,-270.81 171,-231.5 174.03,-227.73 177.92,-224.7 182.17,-222.27"/>
<polygon fill="#9a32cd" stroke="#9a32cd" points="104.69,-368.17 95.89,-374.06 106.45,-374.95 104.69,-368.17"/>
<text text-anchor="middle" x="133" y="-371.5" font-family="Helvetica,sans-Serif" font-size="10.00"> config1</text>
</g>
<!-- Node7 -->
<g id="node7" class="node">
<title>Node7</title>
<g id="a_node7"><a xlink:href="unionMCP3x6x_1_1Config2.xhtml" target="_top" xlink:title="configuration register 2">
<polygon fill="white" stroke="#666666" points="95,-352 0,-352 0,-333 95,-333 95,-352"/>
<text text-anchor="middle" x="47.5" y="-340" font-family="Helvetica,sans-Serif" font-size="10.00">MCP3x6x::Config2</text>
</a>
</g>
</g>
<!-- Node7&#45;&gt;Node4 -->
<g id="edge6" class="edge">
<title>Node7&#45;&gt;Node4</title>
<path fill="none" stroke="#9a32cd" stroke-dasharray="5,2" d="M106.06,-331.87C123.26,-326.09 140.76,-317.19 153,-303.5 174.98,-278.9 149.26,-256.31 171,-231.5 174.31,-227.72 178.46,-224.69 182.94,-222.26"/>
<polygon fill="#9a32cd" stroke="#9a32cd" points="105.45,-328.4 96.89,-334.64 107.48,-335.1 105.45,-328.4"/>
<text text-anchor="middle" x="133" y="-331.5" font-family="Helvetica,sans-Serif" font-size="10.00"> config2</text>
</g>
<!-- Node8 -->
<g id="node8" class="node">
<title>Node8</title>
<g id="a_node8"><a xlink:href="unionMCP3x6x_1_1Config3.xhtml" target="_top" xlink:title="configuration register 3">
<polygon fill="white" stroke="#666666" points="95,-315 0,-315 0,-296 95,-296 95,-315"/>
<text text-anchor="middle" x="47.5" y="-303" font-family="Helvetica,sans-Serif" font-size="10.00">MCP3x6x::Config3</text>
</a>
</g>
</g>
<!-- Node8&#45;&gt;Node4 -->
<g id="edge7" class="edge">
<title>Node8&#45;&gt;Node4</title>
<path fill="none" stroke="#9a32cd" stroke-dasharray="5,2" d="M105.58,-291.93C122.25,-285.9 139.58,-277.38 153,-265.5 165.8,-254.17 158.26,-242.91 171,-231.5 175.14,-227.79 180.09,-224.77 185.21,-222.31"/>
<polygon fill="#9a32cd" stroke="#9a32cd" points="104.58,-288.57 96.21,-295.06 106.8,-295.21 104.58,-288.57"/>
<text text-anchor="middle" x="133" y="-291.5" font-family="Helvetica,sans-Serif" font-size="10.00"> config3</text>
</g>
<!-- Node9 -->
<g id="node9" class="node">
<title>Node9</title>
<g id="a_node9"><a xlink:href="unionMCP3x6x_1_1Irq.xhtml" target="_top" xlink:title="interrupt request register">
<polygon fill="white" stroke="#666666" points="84.5,-278 10.5,-278 10.5,-259 84.5,-259 84.5,-278"/>
<text text-anchor="middle" x="47.5" y="-266" font-family="Helvetica,sans-Serif" font-size="10.00">MCP3x6x::Irq</text>
</a>
</g>
</g>
<!-- Node9&#45;&gt;Node4 -->
<g id="edge8" class="edge">
<title>Node9&#45;&gt;Node4</title>
<path fill="none" stroke="#9a32cd" stroke-dasharray="5,2" d="M95.44,-256.06C113.54,-250.99 134.35,-244.83 153,-238.5 155.13,-237.78 176.3,-229.42 194.09,-222.38"/>
<polygon fill="#9a32cd" stroke="#9a32cd" points="94.72,-252.62 86.01,-258.66 96.58,-259.37 94.72,-252.62"/>
<text text-anchor="middle" x="133" y="-253.5" font-family="Helvetica,sans-Serif" font-size="10.00"> irq</text>
</g>
<!-- Node10 -->
<g id="node10" class="node">
<title>Node10</title>
<g id="a_node10"><a xlink:href="unionMCP3x6x_1_1Mux.xhtml" target="_top" xlink:title="multiplexer register">
<polygon fill="white" stroke="#666666" points="87.5,-241 7.5,-241 7.5,-222 87.5,-222 87.5,-241"/>
<text text-anchor="middle" x="47.5" y="-229" font-family="Helvetica,sans-Serif" font-size="10.00">MCP3x6x::Mux</text>
</a>
</g>
</g>
<!-- Node10&#45;&gt;Node4 -->
<g id="edge9" class="edge">
<title>Node10&#45;&gt;Node4</title>
<path fill="none" stroke="#9a32cd" stroke-dasharray="5,2" d="M99.05,-225.87C121.68,-223.34 148.25,-220.38 170.62,-217.89"/>
<polygon fill="#9a32cd" stroke="#9a32cd" points="98.67,-222.39 89.12,-226.97 99.45,-229.34 98.67,-222.39"/>
<text text-anchor="middle" x="133" y="-226.5" font-family="Helvetica,sans-Serif" font-size="10.00"> mux</text>
</g>
<!-- Node11 -->
<g id="node11" class="node">
<title>Node11</title>
<g id="a_node11"><a xlink:href="unionMCP3x6x_1_1Scan.xhtml" target="_top" xlink:title="scan mode settings register">
<polygon fill="white" stroke="#666666" points="90,-204 5,-204 5,-185 90,-185 90,-204"/>
<text text-anchor="middle" x="47.5" y="-192" font-family="Helvetica,sans-Serif" font-size="10.00">MCP3x6x::Scan</text>
</a>
</g>
</g>
<!-- Node11&#45;&gt;Node4 -->
<g id="edge10" class="edge">
<title>Node11&#45;&gt;Node4</title>
<path fill="none" stroke="#9a32cd" stroke-dasharray="5,2" d="M101.47,-194.77C118.02,-195.33 136.31,-196.43 153,-198.5 160.9,-199.48 169.27,-200.93 177.28,-202.53"/>
<polygon fill="#9a32cd" stroke="#9a32cd" points="101.93,-191.29 91.84,-194.51 101.74,-198.28 101.93,-191.29"/>
<text text-anchor="middle" x="133" y="-201.5" font-family="Helvetica,sans-Serif" font-size="10.00"> scan</text>
</g>
<!-- Node12 -->
<g id="node12" class="node">
<title>Node12</title>
<g id="a_node12"><a xlink:href="unionMCP3x6x_1_1Timer.xhtml" target="_top" xlink:title="timer delay value register">
<polygon fill="white" stroke="#666666" points="91,-167 4,-167 4,-148 91,-148 91,-167"/>
<text text-anchor="middle" x="47.5" y="-155" font-family="Helvetica,sans-Serif" font-size="10.00">MCP3x6x::Timer</text>
</a>
</g>
</g>
<!-- Node12&#45;&gt;Node4 -->
<g id="edge11" class="edge">
<title>Node12&#45;&gt;Node4</title>
<path fill="none" stroke="#9a32cd" stroke-dasharray="5,2" d="M102.48,-166.12C118.94,-169.48 136.93,-173.89 153,-179.5 170.42,-185.57 189.12,-195.26 202.16,-202.57"/>
<polygon fill="#9a32cd" stroke="#9a32cd" points="103.34,-162.73 92.86,-164.26 102.01,-169.6 103.34,-162.73"/>
<text text-anchor="middle" x="133" y="-182.5" font-family="Helvetica,sans-Serif" font-size="10.00"> timer</text>
</g>
<!-- Node13 -->
<g id="node13" class="node">
<title>Node13</title>
<g id="a_node13"><a xlink:href="unionMCP3x6x_1_1Offset.xhtml" target="_top" xlink:title="offset calibration register">
<polygon fill="white" stroke="#666666" points="92,-130 3,-130 3,-111 92,-111 92,-130"/>
<text text-anchor="middle" x="47.5" y="-118" font-family="Helvetica,sans-Serif" font-size="10.00">MCP3x6x::Offset</text>
</a>
</g>
</g>
<!-- Node13&#45;&gt;Node4 -->
<g id="edge12" class="edge">
<title>Node13&#45;&gt;Node4</title>
<path fill="none" stroke="#9a32cd" stroke-dasharray="5,2" d="M103.16,-132.33C119.8,-137.2 137.71,-143.8 153,-152.5 176.69,-165.98 199,-189.29 210.63,-202.53"/>
<polygon fill="#9a32cd" stroke="#9a32cd" points="104.48,-129.06 93.91,-129.77 102.62,-135.81 104.48,-129.06"/>
<text text-anchor="middle" x="133" y="-155.5" font-family="Helvetica,sans-Serif" font-size="10.00"> offsetcal</text>
</g>
<!-- Node14 -->
<g id="node14" class="node">
<title>Node14</title>
<g id="a_node14"><a xlink:href="unionMCP3x6x_1_1Gain.xhtml" target="_top" xlink:title="gain calibration register">
<polygon fill="white" stroke="#666666" points="89,-93 6,-93 6,-74 89,-74 89,-93"/>
<text text-anchor="middle" x="47.5" y="-81" font-family="Helvetica,sans-Serif" font-size="10.00">MCP3x6x::Gain</text>
</a>
</g>
</g>
<!-- Node14&#45;&gt;Node4 -->
<g id="edge13" class="edge">
<title>Node14&#45;&gt;Node4</title>
<path fill="none" stroke="#9a32cd" stroke-dasharray="5,2" d="M100.37,-95.06C118.22,-100.73 137.58,-108.92 153,-120.5 183.33,-143.29 205.44,-184.01 214.49,-202.67"/>
<polygon fill="#9a32cd" stroke="#9a32cd" points="101.53,-91.75 90.95,-92.27 99.55,-98.47 101.53,-91.75"/>
<text text-anchor="middle" x="133" y="-123.5" font-family="Helvetica,sans-Serif" font-size="10.00"> gaincal</text>
</g>
<!-- Node15 -->
<g id="node15" class="node">
<title>Node15</title>
<g id="a_node15"><a xlink:href="unionMCP3x6x_1_1Lock.xhtml" target="_top" xlink:title="SPI write mode locking password value register.">
<polygon fill="white" stroke="#666666" points="89.5,-56 5.5,-56 5.5,-37 89.5,-37 89.5,-56"/>
<text text-anchor="middle" x="47.5" y="-44" font-family="Helvetica,sans-Serif" font-size="10.00">MCP3x6x::Lock</text>
</a>
</g>
</g>
<!-- Node15&#45;&gt;Node4 -->
<g id="edge14" class="edge">
<title>Node15&#45;&gt;Node4</title>
<path fill="none" stroke="#9a32cd" stroke-dasharray="5,2" d="M100.94,-56.68C119.01,-62.23 138.37,-70.69 153,-83.5 191.42,-117.14 210.41,-178.54 216.63,-202.53"/>
<polygon fill="#9a32cd" stroke="#9a32cd" points="101.93,-53.32 91.36,-54 100.04,-60.06 101.93,-53.32"/>
<text text-anchor="middle" x="133" y="-86.5" font-family="Helvetica,sans-Serif" font-size="10.00"> lock</text>
</g>
<!-- Node16 -->
<g id="node16" class="node">
<title>Node16</title>
<g id="a_node16"><a xlink:href="unionMCP3x6x_1_1Crccfg.xhtml" target="_top" xlink:title="crc configuration register">
<polygon fill="white" stroke="#666666" points="93,-19 2,-19 2,0 93,0 93,-19"/>
<text text-anchor="middle" x="47.5" y="-7" font-family="Helvetica,sans-Serif" font-size="10.00">MCP3x6x::Crccfg</text>
</a>
</g>
</g>
<!-- Node16&#45;&gt;Node4 -->
<g id="edge15" class="edge">
<title>Node16&#45;&gt;Node4</title>
<path fill="none" stroke="#9a32cd" stroke-dasharray="5,2" d="M104.08,-19.11C121.48,-24.44 139.62,-32.7 153,-45.5 200.31,-90.75 214.42,-174.14 217.96,-202.64"/>
<polygon fill="#9a32cd" stroke="#9a32cd" points="105.41,-15.85 94.84,-16.56 103.55,-22.59 105.41,-15.85"/>
<text text-anchor="middle" x="133" y="-48.5" font-family="Helvetica,sans-Serif" font-size="10.00"> crccfg</text>
</g>
</g>
</svg>
        <g id="navigator" transform="translate(0 0)" fill="#404254">
                <rect fill="#f2f5e9" fill-opacity="0.5" stroke="#606060" stroke-width=".5" x="0" y="0" width="60" height="60"/>
                <use id="zoomplus" xlink:href="#zoomPlus" x="17" y="9" onmousedown="handleZoom(evt,'in')"/>
                <use id="zoomminus" xlink:href="#zoomMin" x="42" y="9" onmousedown="handleZoom(evt,'out')"/>
                <use id="reset" xlink:href="#resetDef" x="30" y="36" onmousedown="handleReset()"/>
                <g id="arrowUp" xlink:href="#dirArrow" transform="translate(30 24)" onmousedown="handlePan(0,-1)">
                  <use xlink:href="#rim" fill="#404040">
                        <set attributeName="fill" to="#808080" begin="arrowUp.mouseover" end="arrowUp.mouseout"/>
                  </use>
                  <path fill="none" stroke="white" stroke-width="1.5" d="M0,-3.0v7 M-2.5,-0.5L0,-3.0L2.5,-0.5"/>
                </g>
                <g id="arrowRight" xlink:href="#dirArrow" transform="rotate(90) translate(36 -43)" onmousedown="handlePan(1,0)">
                  <use xlink:href="#rim" fill="#404040">
                        <set attributeName="fill" to="#808080" begin="arrowRight.mouseover" end="arrowRight.mouseout"/>
                  </use>
                  <path fill="none" stroke="white" stroke-width="1.5" d="M0,-3.0v7 M-2.5,-0.5L0,-3.0L2.5,-0.5"/>
                </g>
                <g id="arrowDown" xlink:href="#dirArrow" transform="rotate(180) translate(-30 -48)" onmousedown="handlePan(0,1)">
                  <use xlink:href="#rim" fill="#404040">
                        <set attributeName="fill" to="#808080" begin="arrowDown.mouseover" end="arrowDown.mouseout"/>
                  </use>
                  <path fill="none" stroke="white" stroke-width="1.5" d="M0,-3.0v7 M-2.5,-0.5L0,-3.0L2.5,-0.5"/>
                </g>
                <g id="arrowLeft" xlink:href="#dirArrow" transform="rotate(270) translate(-36 17)" onmousedown="handlePan(-1,0)">
                  <use xlink:href="#rim" fill="#404040">
                        <set attributeName="fill" to="#808080" begin="arrowLeft.mouseover" end="arrowLeft.mouseout"/>
                  </use>
                  <path fill="none" stroke="white" stroke-width="1.5" d="M0,-3.0v7 M-2.5,-0.5L0,-3.0L2.5,-0.5"/>
                </g>
        </g>
        <svg viewBox="0 0 15 15" width="100%" height="30px" preserveAspectRatio="xMaxYMin meet">
         <g id="arrow_out" transform="scale(0.3 0.3)">
          <a xlink:href="classMCP3561__coll__graph_org.svg" target="_base">
           <rect id="button" ry="5" rx="5" y="6" x="6" height="38" width="38"
                fill="#f2f5e9" fill-opacity="0.5" stroke="#606060" stroke-width="1.0"/>
           <path id="arrow"
             d="M 11.500037,31.436501 C 11.940474,20.09759 22.043105,11.32322 32.158766,21.979434 L 37.068811,17.246167 C 37.068811,17.246167 37.088388,32 37.088388,32 L 22.160133,31.978069 C 22.160133,31.978069 26.997745,27.140456 26.997745,27.140456 C 18.528582,18.264221 13.291696,25.230495 11.500037,31.436501 z"
             style="fill:#404040;"/>
          </a>
         </g>
        </svg>
</svg>
