<?xml version="1.0" encoding="UTF-8" standalone="no"?>
<!DOCTYPE svg PUBLIC "-//W3C//DTD SVG 1.1//EN"
 "http://www.w3.org/Graphics/SVG/1.1/DTD/svg11.dtd">
<!-- Generated by graphviz version 7.0.4 (20221203.1631)
 -->
<!-- Title: MCP3x6x Pages: 1 -->
<svg width="452pt" height="82pt"
 viewBox="0.00 0.00 452.00 82.00" xmlns="http://www.w3.org/2000/svg" xmlns:xlink="http://www.w3.org/1999/xlink">
<g id="graph0" class="graph" transform="scale(1 1) rotate(0) translate(4 78)">
<title>MCP3x6x</title>
<!-- Node1 -->
<g id="node1" class="node">
<title>Node1</title>
<g id="a_node1"><a xlink:title="base class">
<polygon fill="#999999" stroke="#666666" points="250.5,-74 192.5,-74 192.5,-55 250.5,-55 250.5,-74"/>
<text text-anchor="middle" x="221.5" y="-62" font-family="Helvetica,sans-Serif" font-size="10.00">MCP3x6x</text>
</a>
</g>
</g>
<!-- Node2 -->
<g id="node2" class="node">
<title>Node2</title>
<g id="a_node2"><a xlink:href="classMCP3461.xhtml" target="_top" xlink:title="inherited class">
<polygon fill="white" stroke="#666666" points="59,-19 0,-19 0,0 59,0 59,-19"/>
<text text-anchor="middle" x="29.5" y="-7" font-family="Helvetica,sans-Serif" font-size="10.00">MCP3461</text>
</a>
</g>
</g>
<!-- Node1&#45;&gt;Node2 -->
<g id="edge1" class="edge">
<title>Node1&#45;&gt;Node2</title>
<path fill="none" stroke="#63b8ff" d="M181.6,-52.49C145.16,-42.43 92.11,-27.78 59.25,-18.71"/>
<polygon fill="#63b8ff" stroke="#63b8ff" points="180.31,-55.76 190.88,-55.05 182.17,-49.01 180.31,-55.76"/>
</g>
<!-- Node3 -->
<g id="node3" class="node">
<title>Node3</title>
<g id="a_node3"><a xlink:href="classMCP3462.xhtml" target="_top" xlink:title="inherited class">
<polygon fill="white" stroke="#666666" points="136,-19 77,-19 77,0 136,0 136,-19"/>
<text text-anchor="middle" x="106.5" y="-7" font-family="Helvetica,sans-Serif" font-size="10.00">MCP3462</text>
</a>
</g>
</g>
<!-- Node1&#45;&gt;Node3 -->
<g id="edge2" class="edge">
<title>Node1&#45;&gt;Node3</title>
<path fill="none" stroke="#63b8ff" d="M191.77,-49.8C170.95,-40.2 143.74,-27.66 125.72,-19.36"/>
<polygon fill="#63b8ff" stroke="#63b8ff" points="190.07,-52.87 200.62,-53.88 193,-46.51 190.07,-52.87"/>
</g>
<!-- Node4 -->
<g id="node4" class="node">
<title>Node4</title>
<g id="a_node4"><a xlink:href="classMCP3464.xhtml" target="_top" xlink:title="inherited class">
<polygon fill="white" stroke="#666666" points="213,-19 154,-19 154,0 213,0 213,-19"/>
<text text-anchor="middle" x="183.5" y="-7" font-family="Helvetica,sans-Serif" font-size="10.00">MCP3464</text>
</a>
</g>
</g>
<!-- Node1&#45;&gt;Node4 -->
<g id="edge3" class="edge">
<title>Node1&#45;&gt;Node4</title>
<path fill="none" stroke="#63b8ff" d="M208.7,-45.65C202.38,-36.84 195.04,-26.59 189.91,-19.44"/>
<polygon fill="#63b8ff" stroke="#63b8ff" points="205.67,-47.43 214.34,-53.52 211.36,-43.35 205.67,-47.43"/>
</g>
<!-- Node5 -->
<g id="node5" class="node">
<title>Node5</title>
<g id="a_node5"><a xlink:href="classMCP3561.xhtml" target="_top" xlink:title="inherited class">
<polygon fill="white" stroke="#666666" points="290,-19 231,-19 231,0 290,0 290,-19"/>
<text text-anchor="middle" x="260.5" y="-7" font-family="Helvetica,sans-Serif" font-size="10.00">MCP3561</text>
</a>
</g>
</g>
<!-- Node1&#45;&gt;Node5 -->
<g id="edge4" class="edge">
<title>Node1&#45;&gt;Node5</title>
<path fill="none" stroke="#63b8ff" d="M234.64,-45.65C241.12,-36.84 248.66,-26.59 253.92,-19.44"/>
<polygon fill="#63b8ff" stroke="#63b8ff" points="231.94,-43.4 228.84,-53.53 237.58,-47.55 231.94,-43.4"/>
</g>
<!-- Node6 -->
<g id="node6" class="node">
<title>Node6</title>
<g id="a_node6"><a xlink:href="classMCP3562.xhtml" target="_top" xlink:title="inherited class">
<polygon fill="white" stroke="#666666" points="367,-19 308,-19 308,0 367,0 367,-19"/>
<text text-anchor="middle" x="337.5" y="-7" font-family="Helvetica,sans-Serif" font-size="10.00">MCP3562</text>
</a>
</g>
</g>
<!-- Node1&#45;&gt;Node6 -->
<g id="edge5" class="edge">
<title>Node1&#45;&gt;Node6</title>
<path fill="none" stroke="#63b8ff" d="M251.49,-49.8C272.49,-40.2 299.94,-27.66 318.11,-19.36"/>
<polygon fill="#63b8ff" stroke="#63b8ff" points="250.2,-46.54 242.55,-53.88 253.1,-52.91 250.2,-46.54"/>
</g>
<!-- Node7 -->
<g id="node7" class="node">
<title>Node7</title>
<g id="a_node7"><a xlink:href="classMCP3564.xhtml" target="_top" xlink:title="inherited class">
<polygon fill="white" stroke="#666666" points="444,-19 385,-19 385,0 444,0 444,-19"/>
<text text-anchor="middle" x="414.5" y="-7" font-family="Helvetica,sans-Serif" font-size="10.00">MCP3564</text>
</a>
</g>
</g>
<!-- Node1&#45;&gt;Node7 -->
<g id="edge6" class="edge">
<title>Node1&#45;&gt;Node7</title>
<path fill="none" stroke="#63b8ff" d="M261.6,-52.49C298.23,-42.43 351.57,-27.78 384.59,-18.71"/>
<polygon fill="#63b8ff" stroke="#63b8ff" points="260.99,-49.03 252.27,-55.05 262.84,-55.78 260.99,-49.03"/>
</g>
</g>
</svg>
