<?xml version="1.0" encoding="UTF-8" standalone="no"?>
<!DOCTYPE svg PUBLIC "-//W3C//DTD SVG 1.1//EN"
 "http://www.w3.org/Graphics/SVG/1.1/DTD/svg11.dtd">
<!-- Generated by graphviz version 7.0.4 (20221203.1631)
 -->
<!-- Title: Graphical Class Hierarchy Pages: 1 -->
<svg width="161pt" height="212pt"
 viewBox="0.00 0.00 161.00 212.00" xmlns="http://www.w3.org/2000/svg" xmlns:xlink="http://www.w3.org/1999/xlink">
<g id="graph0" class="graph" transform="scale(1 1) rotate(0) translate(4 208)">
<title>Graphical Class Hierarchy</title>
<!-- Node0 -->
<g id="node1" class="node">
<title>Node0</title>
<g id="a_node1"><a xlink:href="classMCP3x6x.xhtml" target="_top" xlink:title="base class">
<polygon fill="white" stroke="#666666" points="58,-111 0,-111 0,-92 58,-92 58,-111"/>
<text text-anchor="middle" x="29" y="-99" font-family="Helvetica,sans-Serif" font-size="10.00">MCP3x6x</text>
</a>
</g>
</g>
<!-- Node1 -->
<g id="node2" class="node">
<title>Node1</title>
<g id="a_node2"><a xlink:href="classMCP3461.xhtml" target="_top" xlink:title="inherited class">
<polygon fill="white" stroke="#666666" points="153,-204 94,-204 94,-185 153,-185 153,-204"/>
<text text-anchor="middle" x="123.5" y="-192" font-family="Helvetica,sans-Serif" font-size="10.00">MCP3461</text>
</a>
</g>
</g>
<!-- Node0&#45;&gt;Node1 -->
<g id="edge1" class="edge">
<title>Node0&#45;&gt;Node1</title>
<path fill="none" stroke="#63b8ff" d="M43.48,-120.29C55.57,-136.36 74.39,-159.52 94,-176.5 97.36,-179.41 101.24,-182.18 105.03,-184.64"/>
<polygon fill="#63b8ff" stroke="#63b8ff" points="46.51,-118.51 37.77,-112.53 40.88,-122.66 46.51,-118.51"/>
</g>
<!-- Node2 -->
<g id="node3" class="node">
<title>Node2</title>
<g id="a_node3"><a xlink:href="classMCP3462.xhtml" target="_top" xlink:title="inherited class">
<polygon fill="white" stroke="#666666" points="153,-167 94,-167 94,-148 153,-148 153,-167"/>
<text text-anchor="middle" x="123.5" y="-155" font-family="Helvetica,sans-Serif" font-size="10.00">MCP3462</text>
</a>
</g>
</g>
<!-- Node0&#45;&gt;Node2 -->
<g id="edge2" class="edge">
<title>Node0&#45;&gt;Node2</title>
<path fill="none" stroke="#63b8ff" d="M55.56,-116.97C71.77,-126.79 92.25,-139.19 106.26,-147.67"/>
<polygon fill="#63b8ff" stroke="#63b8ff" points="57.77,-114.22 47.41,-112.04 54.15,-120.21 57.77,-114.22"/>
</g>
<!-- Node3 -->
<g id="node4" class="node">
<title>Node3</title>
<g id="a_node4"><a xlink:href="classMCP3464.xhtml" target="_top" xlink:title="inherited class">
<polygon fill="white" stroke="#666666" points="153,-130 94,-130 94,-111 153,-111 153,-130"/>
<text text-anchor="middle" x="123.5" y="-118" font-family="Helvetica,sans-Serif" font-size="10.00">MCP3464</text>
</a>
</g>
</g>
<!-- Node0&#45;&gt;Node3 -->
<g id="edge3" class="edge">
<title>Node0&#45;&gt;Node3</title>
<path fill="none" stroke="#63b8ff" d="M69.49,-109.61C77.65,-111.29 86.09,-113.02 93.78,-114.6"/>
<polygon fill="#63b8ff" stroke="#63b8ff" points="70.24,-106.19 59.74,-107.61 68.83,-113.05 70.24,-106.19"/>
</g>
<!-- Node4 -->
<g id="node5" class="node">
<title>Node4</title>
<g id="a_node5"><a xlink:href="classMCP3561.xhtml" target="_top" xlink:title="inherited class">
<polygon fill="white" stroke="#666666" points="153,-93 94,-93 94,-74 153,-74 153,-93"/>
<text text-anchor="middle" x="123.5" y="-81" font-family="Helvetica,sans-Serif" font-size="10.00">MCP3561</text>
</a>
</g>
</g>
<!-- Node0&#45;&gt;Node4 -->
<g id="edge4" class="edge">
<title>Node0&#45;&gt;Node4</title>
<path fill="none" stroke="#63b8ff" d="M69.49,-93.82C77.65,-92.23 86.09,-90.58 93.78,-89.09"/>
<polygon fill="#63b8ff" stroke="#63b8ff" points="68.89,-90.37 59.74,-95.71 70.23,-97.24 68.89,-90.37"/>
</g>
<!-- Node5 -->
<g id="node6" class="node">
<title>Node5</title>
<g id="a_node6"><a xlink:href="classMCP3562.xhtml" target="_top" xlink:title="inherited class">
<polygon fill="white" stroke="#666666" points="153,-56 94,-56 94,-37 153,-37 153,-56"/>
<text text-anchor="middle" x="123.5" y="-44" font-family="Helvetica,sans-Serif" font-size="10.00">MCP3562</text>
</a>
</g>
</g>
<!-- Node0&#45;&gt;Node5 -->
<g id="edge5" class="edge">
<title>Node0&#45;&gt;Node5</title>
<path fill="none" stroke="#63b8ff" d="M56.32,-85.85C72.23,-76.39 92.02,-64.62 105.79,-56.43"/>
<polygon fill="#63b8ff" stroke="#63b8ff" points="54.64,-82.77 47.84,-90.89 58.22,-88.79 54.64,-82.77"/>
</g>
<!-- Node6 -->
<g id="node7" class="node">
<title>Node6</title>
<g id="a_node7"><a xlink:href="classMCP3564.xhtml" target="_top" xlink:title="inherited class">
<polygon fill="white" stroke="#666666" points="153,-19 94,-19 94,0 153,0 153,-19"/>
<text text-anchor="middle" x="123.5" y="-7" font-family="Helvetica,sans-Serif" font-size="10.00">MCP3564</text>
</a>
</g>
</g>
<!-- Node0&#45;&gt;Node6 -->
<g id="edge6" class="edge">
<title>Node0&#45;&gt;Node6</title>
<path fill="none" stroke="#63b8ff" d="M43.88,-83.11C56.1,-67.57 74.89,-45.24 94,-28.5 97.67,-25.29 101.91,-22.18 105.98,-19.45"/>
<polygon fill="#63b8ff" stroke="#63b8ff" points="41.44,-80.54 38.09,-90.6 46.98,-84.82 41.44,-80.54"/>
</g>
</g>
</svg>
