<?xml version="1.0" encoding="UTF-8" standalone="no"?>
<!DOCTYPE svg PUBLIC "-//W3C//DTD SVG 1.1//EN"
 "http://www.w3.org/Graphics/SVG/1.1/DTD/svg11.dtd">
<!-- Generated by graphviz version 7.0.4 (20221203.1631)
 -->
<!-- Title: lib/MCP3x6x/MCP3x6x.cpp Pages: 1 -->
<svg width="215pt" height="137pt"
 viewBox="0.00 0.00 215.00 137.00" xmlns="http://www.w3.org/2000/svg" xmlns:xlink="http://www.w3.org/1999/xlink">
<g id="graph0" class="graph" transform="scale(1 1) rotate(0) translate(4 133)">
<title>lib/MCP3x6x/MCP3x6x.cpp</title>
<!-- Node1 -->
<g id="node1" class="node">
<title>Node1</title>
<g id="a_node1"><a xlink:title=" ">
<polygon fill="#999999" stroke="#666666" points="184.5,-129 51.5,-129 51.5,-110 184.5,-110 184.5,-129"/>
<text text-anchor="middle" x="118" y="-117" font-family="Helvetica,sans-Serif" font-size="10.00">lib/MCP3x6x/MCP3x6x.cpp</text>
</a>
</g>
</g>
<!-- Node2 -->
<g id="node2" class="node">
<title>Node2</title>
<g id="a_node2"><a xlink:href="MCP3x6x_8h.xhtml" target="_top" xlink:title=" ">
<polygon fill="white" stroke="#666666" points="104.5,-74 39.5,-74 39.5,-55 104.5,-55 104.5,-74"/>
<text text-anchor="middle" x="72" y="-62" font-family="Helvetica,sans-Serif" font-size="10.00">MCP3x6x.h</text>
</a>
</g>
</g>
<!-- Node1&#45;&gt;Node2 -->
<g id="edge1" class="edge">
<title>Node1&#45;&gt;Node2</title>
<path fill="none" stroke="#63b8ff" d="M110.4,-109.75C104.12,-102.5 94.99,-91.98 87.2,-83.02"/>
<polygon fill="#63b8ff" stroke="#63b8ff" points="89.95,-80.84 80.75,-75.59 84.66,-85.43 89.95,-80.84"/>
</g>
<!-- Node5 -->
<g id="node5" class="node">
<title>Node5</title>
<g id="a_node5"><a xlink:title=" ">
<polygon fill="#e0e0e0" stroke="#999999" points="207,-74 123,-74 123,-55 207,-55 207,-74"/>
<text text-anchor="middle" x="165" y="-62" font-family="Helvetica,sans-Serif" font-size="10.00">wiring_private.h</text>
</a>
</g>
</g>
<!-- Node1&#45;&gt;Node5 -->
<g id="edge4" class="edge">
<title>Node1&#45;&gt;Node5</title>
<path fill="none" stroke="#63b8ff" d="M125.76,-109.75C132.19,-102.5 141.51,-91.98 149.46,-83.02"/>
<polygon fill="#63b8ff" stroke="#63b8ff" points="152.05,-85.38 156.07,-75.57 146.81,-80.73 152.05,-85.38"/>
</g>
<!-- Node3 -->
<g id="node3" class="node">
<title>Node3</title>
<g id="a_node3"><a xlink:title=" ">
<polygon fill="#e0e0e0" stroke="#999999" points="70,-19 0,-19 0,0 70,0 70,-19"/>
<text text-anchor="middle" x="35" y="-7" font-family="Helvetica,sans-Serif" font-size="10.00">WProgram.h</text>
</a>
</g>
</g>
<!-- Node2&#45;&gt;Node3 -->
<g id="edge2" class="edge">
<title>Node2&#45;&gt;Node3</title>
<path fill="none" stroke="#63b8ff" d="M65.89,-54.75C60.99,-47.73 53.95,-37.64 47.83,-28.87"/>
<polygon fill="#63b8ff" stroke="#63b8ff" points="50.7,-26.88 42.11,-20.68 44.96,-30.89 50.7,-26.88"/>
</g>
<!-- Node4 -->
<g id="node4" class="node">
<title>Node4</title>
<g id="a_node4"><a xlink:title=" ">
<polygon fill="#e0e0e0" stroke="#999999" points="129.5,-19 88.5,-19 88.5,0 129.5,0 129.5,-19"/>
<text text-anchor="middle" x="109" y="-7" font-family="Helvetica,sans-Serif" font-size="10.00">SPI.h</text>
</a>
</g>
</g>
<!-- Node2&#45;&gt;Node4 -->
<g id="edge3" class="edge">
<title>Node2&#45;&gt;Node4</title>
<path fill="none" stroke="#63b8ff" d="M78.11,-54.75C83.01,-47.73 90.05,-37.64 96.17,-28.87"/>
<polygon fill="#63b8ff" stroke="#63b8ff" points="99.04,-30.89 101.89,-20.68 93.3,-26.88 99.04,-30.89"/>
</g>
</g>
</svg>
