<?xml version="1.0" encoding="UTF-8" standalone="no"?>
<!DOCTYPE svg PUBLIC "-//W3C//DTD SVG 1.1//EN"
 "http://www.w3.org/Graphics/SVG/1.1/DTD/svg11.dtd">
<!-- Generated by graphviz version 7.0.4 (20221203.1631)
 -->
<!-- Title: MCP3x6x::Settings Pages: 1 -->
<svg width="277pt" height="434pt"
 viewBox="0.00 0.00 277.00 434.00" xmlns="http://www.w3.org/2000/svg" xmlns:xlink="http://www.w3.org/1999/xlink">
<g id="graph0" class="graph" transform="scale(1 1) rotate(0) translate(4 430)">
<title>MCP3x6x::Settings</title>
<!-- Node1 -->
<g id="node1" class="node">
<title>Node1</title>
<g id="a_node1"><a xlink:title="settings">
<polygon fill="#999999" stroke="#666666" points="269,-222 171,-222 171,-203 269,-203 269,-222"/>
<text text-anchor="middle" x="220" y="-210" font-family="Helvetica,sans-Serif" font-size="10.00">MCP3x6x::Settings</text>
</a>
</g>
</g>
<!-- Node2 -->
<g id="node2" class="node">
<title>Node2</title>
<g id="a_node2"><a xlink:href="unionMCP3x6x_1_1Config0.xhtml" target="_top" xlink:title="configuration register 0">
<polygon fill="white" stroke="#666666" points="95,-426 0,-426 0,-407 95,-407 95,-426"/>
<text text-anchor="middle" x="47.5" y="-414" font-family="Helvetica,sans-Serif" font-size="10.00">MCP3x6x::Config0</text>
</a>
</g>
</g>
<!-- Node2&#45;&gt;Node1 -->
<g id="edge1" class="edge">
<title>Node2&#45;&gt;Node1</title>
<path fill="none" stroke="#9a32cd" stroke-dasharray="5,2" d="M105.51,-402.98C122.51,-396.65 140.04,-387.53 153,-374.5 197.76,-329.5 213.43,-250 217.67,-222.33"/>
<polygon fill="#9a32cd" stroke="#9a32cd" points="104.8,-399.53 96.48,-406.08 107.07,-406.15 104.8,-399.53"/>
<text text-anchor="middle" x="133" y="-401.5" font-family="Helvetica,sans-Serif" font-size="10.00"> config0</text>
</g>
<!-- Node3 -->
<g id="node3" class="node">
<title>Node3</title>
<g id="a_node3"><a xlink:href="unionMCP3x6x_1_1config1.xhtml" target="_top" xlink:title="configuration register 1">
<polygon fill="white" stroke="#666666" points="94,-389 1,-389 1,-370 94,-370 94,-389"/>
<text text-anchor="middle" x="47.5" y="-377" font-family="Helvetica,sans-Serif" font-size="10.00">MCP3x6x::config1</text>
</a>
</g>
</g>
<!-- Node3&#45;&gt;Node1 -->
<g id="edge2" class="edge">
<title>Node3&#45;&gt;Node1</title>
<path fill="none" stroke="#9a32cd" stroke-dasharray="5,2" d="M100.32,-365.81C118.6,-359.01 138.26,-349.23 153,-335.5 188.65,-302.3 209,-245.41 216.11,-222.5"/>
<polygon fill="#9a32cd" stroke="#9a32cd" points="99.2,-362.5 90.89,-369.08 101.49,-369.11 99.2,-362.5"/>
<text text-anchor="middle" x="133" y="-362.5" font-family="Helvetica,sans-Serif" font-size="10.00"> config1</text>
</g>
<!-- Node4 -->
<g id="node4" class="node">
<title>Node4</title>
<g id="a_node4"><a xlink:href="unionMCP3x6x_1_1Config2.xhtml" target="_top" xlink:title="configuration register 2">
<polygon fill="white" stroke="#666666" points="95,-352 0,-352 0,-333 95,-333 95,-352"/>
<text text-anchor="middle" x="47.5" y="-340" font-family="Helvetica,sans-Serif" font-size="10.00">MCP3x6x::Config2</text>
</a>
</g>
</g>
<!-- Node4&#45;&gt;Node1 -->
<g id="edge3" class="edge">
<title>Node4&#45;&gt;Node1</title>
<path fill="none" stroke="#9a32cd" stroke-dasharray="5,2" d="M95.55,-328.83C114.65,-321.79 136.14,-311.83 153,-298.5 181.05,-276.33 203.82,-239.69 213.7,-222.28"/>
<polygon fill="#9a32cd" stroke="#9a32cd" points="94.65,-325.44 86.36,-332.05 96.96,-332.05 94.65,-325.44"/>
<text text-anchor="middle" x="133" y="-323.5" font-family="Helvetica,sans-Serif" font-size="10.00"> config2</text>
</g>
<!-- Node5 -->
<g id="node5" class="node">
<title>Node5</title>
<g id="a_node5"><a xlink:href="unionMCP3x6x_1_1Config3.xhtml" target="_top" xlink:title="configuration register 3">
<polygon fill="white" stroke="#666666" points="95,-315 0,-315 0,-296 95,-296 95,-315"/>
<text text-anchor="middle" x="47.5" y="-303" font-family="Helvetica,sans-Serif" font-size="10.00">MCP3x6x::Config3</text>
</a>
</g>
</g>
<!-- Node5&#45;&gt;Node1 -->
<g id="edge4" class="edge">
<title>Node5&#45;&gt;Node1</title>
<path fill="none" stroke="#9a32cd" stroke-dasharray="5,2" d="M93.01,-291.9C112.1,-285.21 134.27,-276.25 153,-265.5 174.67,-253.06 196.66,-233.77 208.99,-222.21"/>
<polygon fill="#9a32cd" stroke="#9a32cd" points="91.95,-288.57 83.6,-295.09 94.2,-295.19 91.95,-288.57"/>
<text text-anchor="middle" x="133" y="-286.5" font-family="Helvetica,sans-Serif" font-size="10.00"> config3</text>
</g>
<!-- Node6 -->
<g id="node6" class="node">
<title>Node6</title>
<g id="a_node6"><a xlink:href="unionMCP3x6x_1_1Irq.xhtml" target="_top" xlink:title="interrupt request register">
<polygon fill="white" stroke="#666666" points="84.5,-278 10.5,-278 10.5,-259 84.5,-259 84.5,-278"/>
<text text-anchor="middle" x="47.5" y="-266" font-family="Helvetica,sans-Serif" font-size="10.00">MCP3x6x::Irq</text>
</a>
</g>
</g>
<!-- Node6&#45;&gt;Node1 -->
<g id="edge5" class="edge">
<title>Node6&#45;&gt;Node1</title>
<path fill="none" stroke="#9a32cd" stroke-dasharray="5,2" d="M95.44,-256.06C113.54,-250.99 134.35,-244.83 153,-238.5 167.23,-233.67 182.88,-227.54 195.38,-222.44"/>
<polygon fill="#9a32cd" stroke="#9a32cd" points="94.72,-252.62 86.01,-258.66 96.58,-259.37 94.72,-252.62"/>
<text text-anchor="middle" x="133" y="-253.5" font-family="Helvetica,sans-Serif" font-size="10.00"> irq</text>
</g>
<!-- Node7 -->
<g id="node7" class="node">
<title>Node7</title>
<g id="a_node7"><a xlink:href="unionMCP3x6x_1_1Mux.xhtml" target="_top" xlink:title="multiplexer register">
<polygon fill="white" stroke="#666666" points="87.5,-241 7.5,-241 7.5,-222 87.5,-222 87.5,-241"/>
<text text-anchor="middle" x="47.5" y="-229" font-family="Helvetica,sans-Serif" font-size="10.00">MCP3x6x::Mux</text>
</a>
</g>
</g>
<!-- Node7&#45;&gt;Node1 -->
<g id="edge6" class="edge">
<title>Node7&#45;&gt;Node1</title>
<path fill="none" stroke="#9a32cd" stroke-dasharray="5,2" d="M99.05,-225.87C121.68,-223.34 148.25,-220.38 170.62,-217.89"/>
<polygon fill="#9a32cd" stroke="#9a32cd" points="98.67,-222.39 89.12,-226.97 99.45,-229.34 98.67,-222.39"/>
<text text-anchor="middle" x="133" y="-226.5" font-family="Helvetica,sans-Serif" font-size="10.00"> mux</text>
</g>
<!-- Node8 -->
<g id="node8" class="node">
<title>Node8</title>
<g id="a_node8"><a xlink:href="unionMCP3x6x_1_1Scan.xhtml" target="_top" xlink:title="scan mode settings register">
<polygon fill="white" stroke="#666666" points="90,-204 5,-204 5,-185 90,-185 90,-204"/>
<text text-anchor="middle" x="47.5" y="-192" font-family="Helvetica,sans-Serif" font-size="10.00">MCP3x6x::Scan</text>
</a>
</g>
</g>
<!-- Node8&#45;&gt;Node1 -->
<g id="edge7" class="edge">
<title>Node8&#45;&gt;Node1</title>
<path fill="none" stroke="#9a32cd" stroke-dasharray="5,2" d="M101.47,-194.77C118.02,-195.33 136.31,-196.43 153,-198.5 160.9,-199.48 169.27,-200.93 177.28,-202.53"/>
<polygon fill="#9a32cd" stroke="#9a32cd" points="101.93,-191.29 91.84,-194.51 101.74,-198.28 101.93,-191.29"/>
<text text-anchor="middle" x="133" y="-201.5" font-family="Helvetica,sans-Serif" font-size="10.00"> scan</text>
</g>
<!-- Node9 -->
<g id="node9" class="node">
<title>Node9</title>
<g id="a_node9"><a xlink:href="unionMCP3x6x_1_1Timer.xhtml" target="_top" xlink:title="timer delay value register">
<polygon fill="white" stroke="#666666" points="91,-167 4,-167 4,-148 91,-148 91,-167"/>
<text text-anchor="middle" x="47.5" y="-155" font-family="Helvetica,sans-Serif" font-size="10.00">MCP3x6x::Timer</text>
</a>
</g>
</g>
<!-- Node9&#45;&gt;Node1 -->
<g id="edge8" class="edge">
<title>Node9&#45;&gt;Node1</title>
<path fill="none" stroke="#9a32cd" stroke-dasharray="5,2" d="M102.48,-166.12C118.94,-169.48 136.93,-173.89 153,-179.5 170.42,-185.57 189.12,-195.26 202.16,-202.57"/>
<polygon fill="#9a32cd" stroke="#9a32cd" points="103.34,-162.73 92.86,-164.26 102.01,-169.6 103.34,-162.73"/>
<text text-anchor="middle" x="133" y="-182.5" font-family="Helvetica,sans-Serif" font-size="10.00"> timer</text>
</g>
<!-- Node10 -->
<g id="node10" class="node">
<title>Node10</title>
<g id="a_node10"><a xlink:href="unionMCP3x6x_1_1Offset.xhtml" target="_top" xlink:title="offset calibration register">
<polygon fill="white" stroke="#666666" points="92,-130 3,-130 3,-111 92,-111 92,-130"/>
<text text-anchor="middle" x="47.5" y="-118" font-family="Helvetica,sans-Serif" font-size="10.00">MCP3x6x::Offset</text>
</a>
</g>
</g>
<!-- Node10&#45;&gt;Node1 -->
<g id="edge9" class="edge">
<title>Node10&#45;&gt;Node1</title>
<path fill="none" stroke="#9a32cd" stroke-dasharray="5,2" d="M103.16,-132.33C119.8,-137.2 137.71,-143.8 153,-152.5 176.69,-165.98 199,-189.29 210.63,-202.53"/>
<polygon fill="#9a32cd" stroke="#9a32cd" points="104.48,-129.06 93.91,-129.77 102.62,-135.81 104.48,-129.06"/>
<text text-anchor="middle" x="133" y="-155.5" font-family="Helvetica,sans-Serif" font-size="10.00"> offsetcal</text>
</g>
<!-- Node11 -->
<g id="node11" class="node">
<title>Node11</title>
<g id="a_node11"><a xlink:href="unionMCP3x6x_1_1Gain.xhtml" target="_top" xlink:title="gain calibration register">
<polygon fill="white" stroke="#666666" points="89,-93 6,-93 6,-74 89,-74 89,-93"/>
<text text-anchor="middle" x="47.5" y="-81" font-family="Helvetica,sans-Serif" font-size="10.00">MCP3x6x::Gain</text>
</a>
</g>
</g>
<!-- Node11&#45;&gt;Node1 -->
<g id="edge10" class="edge">
<title>Node11&#45;&gt;Node1</title>
<path fill="none" stroke="#9a32cd" stroke-dasharray="5,2" d="M100.37,-95.06C118.22,-100.73 137.58,-108.92 153,-120.5 183.33,-143.29 205.44,-184.01 214.49,-202.67"/>
<polygon fill="#9a32cd" stroke="#9a32cd" points="101.53,-91.75 90.95,-92.27 99.55,-98.47 101.53,-91.75"/>
<text text-anchor="middle" x="133" y="-123.5" font-family="Helvetica,sans-Serif" font-size="10.00"> gaincal</text>
</g>
<!-- Node12 -->
<g id="node12" class="node">
<title>Node12</title>
<g id="a_node12"><a xlink:href="unionMCP3x6x_1_1Lock.xhtml" target="_top" xlink:title="SPI write mode locking password value register.">
<polygon fill="white" stroke="#666666" points="89.5,-56 5.5,-56 5.5,-37 89.5,-37 89.5,-56"/>
<text text-anchor="middle" x="47.5" y="-44" font-family="Helvetica,sans-Serif" font-size="10.00">MCP3x6x::Lock</text>
</a>
</g>
</g>
<!-- Node12&#45;&gt;Node1 -->
<g id="edge11" class="edge">
<title>Node12&#45;&gt;Node1</title>
<path fill="none" stroke="#9a32cd" stroke-dasharray="5,2" d="M100.94,-56.68C119.01,-62.23 138.37,-70.69 153,-83.5 191.42,-117.14 210.41,-178.54 216.63,-202.53"/>
<polygon fill="#9a32cd" stroke="#9a32cd" points="101.93,-53.32 91.36,-54 100.04,-60.06 101.93,-53.32"/>
<text text-anchor="middle" x="133" y="-86.5" font-family="Helvetica,sans-Serif" font-size="10.00"> lock</text>
</g>
<!-- Node13 -->
<g id="node13" class="node">
<title>Node13</title>
<g id="a_node13"><a xlink:href="unionMCP3x6x_1_1Crccfg.xhtml" target="_top" xlink:title="crc configuration register">
<polygon fill="white" stroke="#666666" points="93,-19 2,-19 2,0 93,0 93,-19"/>
<text text-anchor="middle" x="47.5" y="-7" font-family="Helvetica,sans-Serif" font-size="10.00">MCP3x6x::Crccfg</text>
</a>
</g>
</g>
<!-- Node13&#45;&gt;Node1 -->
<g id="edge12" class="edge">
<title>Node13&#45;&gt;Node1</title>
<path fill="none" stroke="#9a32cd" stroke-dasharray="5,2" d="M104.08,-19.11C121.48,-24.44 139.62,-32.7 153,-45.5 200.31,-90.75 214.42,-174.14 217.96,-202.64"/>
<polygon fill="#9a32cd" stroke="#9a32cd" points="105.41,-15.85 94.84,-16.56 103.55,-22.59 105.41,-15.85"/>
<text text-anchor="middle" x="133" y="-48.5" font-family="Helvetica,sans-Serif" font-size="10.00"> crccfg</text>
</g>
</g>
</svg>
